<?xml version="1.0" encoding="utf-8"?>
<!-- Generator: Adobe Illustrator 25.4.1, SVG Export Plug-In . SVG Version: 6.00 Build 0)  -->
<svg version="1.1" id="Layer_1" xmlns="http://www.w3.org/2000/svg" xmlns:xlink="http://www.w3.org/1999/xlink" x="0px" y="0px"
	 viewBox="0 0 400 48" style="enable-background:new 0 0 400 48;" xml:space="preserve">
<style type="text/css">
	.st0{fill:#ECECEC;}
	.st1{fill:#F37932;}
</style>
<path class="st0" d="M243.3,29.9l-6.6-9.7h17.4h16.6v13.5c0,2.4-0.5,4.5-1.6,6.3s-2.5,3.3-4.4,4.5c-1.8,1.2-3.9,2.1-6.1,2.7
	c-2.2,0.6-4.5,0.9-6.8,0.9c-8.4,0-16,0-22.9,0c-2.3,0-4.5-0.3-6.8-0.9c-2.2-0.6-4.3-1.5-6.1-2.7s-3.3-2.7-4.4-4.5
	c-1.1-1.8-1.7-3.9-1.7-6.3c0-0.3,0-0.6,0-0.9c0-6.2,0-12.4,0-18.6c0-2.4,0.6-4.5,1.6-6.3c1.1-1.8,2.6-3.3,4.4-4.5
	c1.8-1.2,3.9-2.1,6.1-2.7c2.2-0.6,4.5-0.9,6.8-0.9c8.4,0,16,0,22.9,0c2.3,0,4.5,0.3,6.8,0.9c2.2,0.6,4.3,1.5,6.1,2.7
	c1.8,1.2,3.3,2.7,4.4,4.5s1.6,3.9,1.6,6.3V16H254c-0.3-1.5-0.9-2.5-2-3.2c-1-0.7-2.1-1.1-3.3-1.1h-16.6c-0.9,0-1.7,0.2-2.6,0.6
	c-0.8,0.4-1.5,1-2,1.8s-0.8,1.8-0.8,3.1c0,4.5,0,8.9,0,13.4c0,1.2,0.3,2.3,0.8,3.1s1.2,1.4,2,1.8c0.8,0.4,1.7,0.6,2.6,0.6
	c2.6,0,5.4,0,8.5,0s5.8,0,8.2,0c0.9,0,1.8-0.2,2.6-0.6c0.8-0.4,1.5-1,2-1.8s0.8-1.8,0.8-3.1v-0.8L243.3,29.9L243.3,29.9z"/>
<path class="st0" d="M289.7,30.3L269.1,0.1h17l12,18.1l12-18.1h17.1l-21,30.2V48h-16.5V30.3z"/>
<path class="st0" d="M347,0.1L365.3,25l18.3-24.9H400V48h-16.5V22.5l-13.9,18.9h-8.8L347,22.5V48h-16.5V0.1H347L347,0.1z"/>
<path class="st1" d="M16.5,0.1L34.8,25L53,0.1h16.5V48H53V22.5L39.1,41.4h-8.8L16.5,22.5V48H0V0.1H16.5z"/>
<path class="st1" d="M106,15.4L89.3,48H72.8L97.3,0h17.3l24.6,48h-16.5l-3.7-7.2h-12.3L99.9,29H113L106,15.4z"/>
<path class="st1" d="M164.8,24L142.5,0h19.7l12.4,13.4L187,0.1h19.7l-22.3,24l22.3,24H187l-12.4-13.4L162.2,48h-19.7L164.8,24z"/>
</svg>
