<?xml version="1.0" encoding="utf-8"?>
<!-- Generator: Adobe Illustrator 25.4.1, SVG Export Plug-In . SVG Version: 6.00 Build 0)  -->
<svg version="1.1" id="Layer_1" xmlns="http://www.w3.org/2000/svg" xmlns:xlink="http://www.w3.org/1999/xlink" x="0px" y="0px"
	 viewBox="0 0 400 67" style="enable-background:new 0 0 400 67;" xml:space="preserve">
<style type="text/css">
	.st0{fill-rule:evenodd;clip-rule:evenodd;fill:#ECECEC;}
</style>
<g>
	<path class="st0" d="M98.3,54c-10.6-2.6-21.6-4.3-31.9-5.3c0.2-0.2,0.5-0.5,0.7-0.8c3.3-3.8,18.3-16.3,21.2-18.7
		c2.9-2.3,2.9-2.8,0.4-7.1c-2.8-4.8-3.8-3.5-6.5-1.3c-2.8,2.2-13.5,11.7-19.8,18.8c-1.7,1.9-1.7,1.3-0.1,6.3
		c0.3,0.8,0.5,1.8,0.9,2.5c-13.4-1.1-25.4-0.9-34.1-0.1C45.3,35,57.8,24.3,73.7,14.8l0,0c6,0.1,6,0.4,9.9-2.1
		c2.7-1.7,5.3-3.5,7.9-5.4c4-3,4.4-4.2-2.7-5.8C83,0.1,81.2-0.4,75.1,3.1c-8.6,4.9-33.7,22.5-59.3,47c-6.6,1.2-12,3.7-14.1,5.2
		s-2.3,2-0.2,5c2.9,4.2,3,4.3,7.7,2c2.5-1.2,6.2-3.4,9.5-5.9c14.5-2.7,46.9-2.9,86.8,8.4c3.5,1,4.5,1.6,1.9-4.1
		C105,55.4,105.3,55.7,98.3,54z"/>
	<path class="st0" d="M92.1,15.1c0.2,4.3,0.6,4.3,3.1,3.3c2.5-1,14.8-4.8,18.3-5.8c2.7-0.8,2.8-1.5,2.3-4.1
		c-0.6-3.8-1.3-3.5-4.9-2.5l0,0c-2.8,0.7-11.2,3.3-14.9,4.5C92.3,11.6,92,11.6,92.1,15.1z"/>
	<path class="st0" d="M141.8,38.2c-3.6,1-8.3,3.2-15.5,4.2c1-2,2.9-4.4,5.2-6.9c6.1,0.3,15.1,0.2,22.4-3.5c4.7-2.3,3.8-6.6,1-10.6
		c-2.8-4.1-5.5-7-13.9-3.5c-4.8,2-9.8,5.8-14.3,10.2c-3.3-0.4-8.1-1-10.8-1.5c5.8-5.4,12-10.3,18-13.8c5.9-3.5,9.1-2.9,10.3-0.2
		c0.8,1.9,2.2,2.5,3.8,1.3c1.6-1.2,2.7-3.5,2.5-5.8c-0.3-5.4-3.7-8.5-9.8-8.2l0,0c-7.8,0.4-13.8,4.7-22.4,12.2
		c-4.4,3.9-8.7,7.9-12.9,12c-5.1-1.3-9.4-2.7-10.3-3.1c-1.3-0.6-2-0.4-1.7,1.5c0.4,2.8,1.2,5.5,6.2,7.7c-4,4.2-7.9,8.6-11.7,13.1
		c-1.6,1.9-1.6,2.2,0.6,5.5c2,3.1,3.1,2.5,4.4,1.2c4.3-4.6,10.1-10.8,16.5-17.2c4.1,0.9,8.9,1.4,11.5,1.8c-1.1,1.4-2.1,2.7-3.1,4.2
		c-1.8,2.6-1.4,4.4,0.4,7.4c1.9,3.1,4.2,5.7,11.2,2.9c7-2.8,13.1-7,14.5-9.3C145.3,37.6,145.4,37.2,141.8,38.2z M145.4,23.2
		c5.5-2.3,8.5,2.3,2.6,3.7c-3.1,0.7-6.2,1.5-9.5,1.8C141.2,26.3,144.1,23.7,145.4,23.2z"/>
	<path class="st0" d="M399.8,25c-0.1-0.9-0.3-1.8-0.6-2.6c-0.6-2-0.7-2.3-12.7-3.3c-7.6-0.6-14.2,2.9-14.9,8.4
		c-4.6,1.4-10.8,3.4-15.9,5.4c-5.3-4.4-5-7.3,0.9-7.3c4.6,0,7.4,0.4,8.5,0.6c2.5,0.4,3.3-0.5,2.9-3.3c-0.4-2.4-0.3-2.4-2.2-3.3
		c-1.8-0.8-5.9-1.6-8-1.6c-12.4,0-17.3,6-14.8,11.8c-6.5,3.9-21.3,11.2-24.8,12.7c-3.3,1.4-5.2,2.6-4.4-2.4
		c9.4-3.2,24.8-8.4,24.8-13.2c0-6-5-7.6-10.5-7.6c-12.7,0-21.5,11.5-23.7,19.6c-2.4,0.8-6.1,1.7-9,2.6c2-2.7,4.5-8,5.8-11.3
		c1.3-3.4,1.3-3.4-0.6-5.4c-2-2-2.1-2-4.1-1.6c-3.1,0.6-9.3,3.5-13.4,6.2c2.7-2.7,3.1-3.3,4.3-4.7c1.2-1.4,0.4-2.3-1.5-4.3
		c-2.2-2.2-2.3-3-4-1.8c-6.6,3.7-23.7,14.1-40.3,23.6c4-4.2,15.8-15.8,23.8-23.6c21.4-3,45.5-4,70.9-2.1c4.3,0.3,2.7-1.4,0.6-4.1
		c-2.1-2.7-2.7-3.6-6.4-3.9c-16.3-1.1-35.7-0.5-56.8,1.9c0.9-1.2,0.2-2.1-1.3-4.8c-2.1-3.6-2.3-4.7-5-2.5l0,0
		c-0.8,0.7-4.4,4.3-9.2,9.3c-6.3,0.9-12.7,1.9-19.3,3.1c-4.6,0.8-3.7,1.7-2.7,4.9c0.8,2.5,1.4,3.6,4.1,2.9c2.4-0.6,4.8-1.1,7.3-1.6
		c-8.2,4.8-21.9,12.1-34,19.1c4.2-4.3,8.5-8.6,13-12.6c1.9-1.7,1.4-2.3-0.6-5.6c-2.1-3.6-2.3-4.7-5-2.5
		c-2.7,2.1-16.3,16.5-23.6,24.7c-1.8,2-1.2,3.7,1.4,6.2c2.5,2.5,3.1,3.3,7.5,0.8c4.3-2.5,24.4-14.4,36.1-22.5
		c-7.2,7.7-13.9,14.8-16.8,18.1c-1.8,2-1.4,2.7,1.2,5c2.6,2.4,3.1,3.3,7.5,0.8c3.8-2.2,25.2-17,38.1-26.3c-5.3,5-12,11.8-16.6,17.9
		c-1.7,2.2-1.5,2.7,1,5.6c2.5,2.9,3.1,3.1,5.4,0.8c2.3-2.3,15.7-14.2,27.7-19.2c-5.6,8-8.9,11.9-10.6,14c-1.7,2.1-1,3.3,2.3,5.8
		c2.7,2.1,2.9,1.8,6.2-0.3c4.8-3.1,10.5-5.3,16.2-7.7c0.3,3.8,2.1,8.2,5.6,8.2c4.2,0,19.9-9,35.1-19.6c1.2,1.5,2.6,2.7,3.8,3.6
		c-5.8,2.6-11.1,5.3-14.7,7.4c-2.9,1.7-3.3,1.6-1.9,4.5c1.4,2.9,0.8,3.2,3.1,3.5c19.7,2.4,27.4-3.9,27.4-10.1c0-2.7-1.6-4.6-3.2-6
		c3.5-1.7,8.5-3.4,12.9-5c1.5,5.8,8.7,6.3,9.3,10.2c0.5,3.3-10.4,4.7-14.7,3.9c-4.3-0.8-2.8,1.7-0.2,3.9c2.8,2.5,3.5,3.9,9.5,3.5
		c8.5-0.6,16.8-3.9,16.8-9.3c0-7.6-8.8-10.7-10.3-13.8c-1.1-2.5,2.5-3.7,7.2-2.9c1.8,2.2,1.4,2.2,5.4,1.5c1.4-0.2,2.8-0.5,4.2-0.8
		C400.2,26.3,400.1,26.3,399.8,25z M330.6,24.3c4.8,1-1.7,4.9-15,10.4C319.4,29,326.4,23.4,330.6,24.3z M336.6,47.3
		c3.6-2.3,10.7-5.7,14.9-8.1C354.7,42.8,349.5,46.1,336.6,47.3z"/>
	<path class="st0" d="M205.1,30.9c3.1,0.1,3-1,1.5-5.1c-1.3-3.6-1.7-3.9-3.6-3.8c-3.8,0-8.8,0.3-14.4,0.7c4.2-4.1,8.1-7.6,11.4-10.3
		c6.1-0.7,14.9-1.4,21.5-1.3c1.5,2.7,2.5,2.7,5,2.4c2.5-0.4,9.2-1.1,13-1.8c4-0.8,4.2-1.2,2.7-5.1l0,0c-1.4-3.6-1.6-3.7-3.4-3.7
		c-23.8,0-45.1,2.5-66.7,6.4c-3.8,0.7-3.3,1.4-1.8,4.5c1.5,3.1,2.7,3.2,4.2,3c2.6-0.4,5.5-0.9,8.5-1.5c-3.3,2.9-6.5,6-9.6,9.1
		c-3.4,0.5-6.9,1.1-10.3,1.8c-3.3,0.7-3,0.9-1.8,4.2c0.9,2.5,1.4,3.4,2.8,3.2l0.6-0.1c-7,7.5-13.6,15.3-18.3,21.7
		c-1.7,2.3-1.9,3.5-0.4,7.7c1.8,5,2.5,5.2,4.6,2.4c6.1-8.1,17.8-21.8,29.3-33.8C187.3,30.9,195.1,30.5,205.1,30.9z"/>
</g>
</svg>
