<?xml version="1.0" encoding="utf-8"?>
<!-- Generator: Adobe Illustrator 25.4.1, SVG Export Plug-In . SVG Version: 6.00 Build 0)  -->
<svg version="1.1" id="Layer_1" xmlns:svg="http://www.w3.org/2000/svg"
	 xmlns="http://www.w3.org/2000/svg" xmlns:xlink="http://www.w3.org/1999/xlink" x="0px" y="0px" viewBox="0 0 400 44"
	 style="enable-background:new 0 0 400 44;" xml:space="preserve">
<style type="text/css">
	.st0{fill:#E5E5E5;}
</style>
<g>
	<path id="path3" class="st0" d="M66.2,0h16.1c0,0-10.3,26.7-10.4,27.1c-0.4,1.7-0.6,4.6,4.5,4.6c7.4,0,9.1,0,14.1,0
		c2-0.1,3.4,0.1,4.8-1c0.9-0.7,1.8-1.9,2.8-4.4C101.3,18.7,108.3,0,108.3,0h16.2l-12.7,32.9c-2.3,5.5-6.1,11-13.7,11
		C89.4,44,72.3,44,65,43.9c-6.4,0-14.5-2.6-10.6-12.9C58.3,20.4,66.2,0,66.2,0"/>
	<polyline id="polyline5" class="st0" points="0,12.3 5.3,0 61.8,0 56.6,12.3 36.8,12.3 24.9,43.3 8.8,43.3 20.5,12.3 0,12.3 	"/>
	<polyline id="polyline7" class="st0" points="114.8,43.4 131.3,0.2 149.9,0.2 163,28.2 173.8,0.2 190.2,0.2 173.6,43.3 154.7,43.3 
		141.6,15.2 130.6,43.4 114.8,43.4 	"/>
	<polyline id="polyline9" class="st0" points="189.3,12.3 194.6,0 251.1,0 245.9,12.3 226.1,12.3 214.2,43.3 198.1,43.3 209.7,12.3 
		189.3,12.3 	"/>
	<path id="path11" class="st0" d="M320.6,0c0,0,43.1,0,45,0c3-0.1,6.5,1.1,7.9,4.6c1.8,4.4-2.4,12.7-5.5,19.8
		c-0.9,1.7-2.4,5.3-9.3,5.6c-3.5,0-6.9,0-6.9,0l13.5,13.3h-18.1L332.9,29l3.6-9.3h17c0.7,0,1.2,0.1,1.7-0.2c0.5-0.3,1.1-0.8,2.3-3.1
		c1.1-2.2,1.9-3.7,1.5-4.5c-0.2-0.6-0.5-0.7-2.9-0.7c-4.6,0-22.9,0.1-22.9,0.1l-12.7,31.8h-16.6L320.6,0"/>
	<polyline id="polyline13" class="st0" points="384,0 400,0 384.4,43.3 368.5,43.3 384,0 	"/>
	<path id="path15" class="st0" d="M255.4,0h16.1c0,0-10.3,26.7-10.5,27.1c-0.5,1.7-0.6,4.6,4.5,4.6c7.5,0,9,0,14,0
		c2-0.1,3.5,0.1,4.8-1c0.9-0.7,1.8-1.9,2.9-4.4C290.5,18.7,297.4,0,297.4,0h16.2l-12.8,32.9c-2.3,5.5-6,11-13.7,11
		c-8.7,0.1-26,0.1-33.1-0.1c-6.4,0-14.6-2.6-10.6-12.9C247.6,20.4,255.4,0,255.4,0"/>
</g>
</svg>
