<?xml version="1.0" encoding="utf-8"?>
<!-- Generator: Adobe Illustrator 25.4.1, SVG Export Plug-In . SVG Version: 6.00 Build 0)  -->
<svg version="1.1" id="layer" xmlns="http://www.w3.org/2000/svg" xmlns:xlink="http://www.w3.org/1999/xlink" x="0px" y="0px"
	 viewBox="0 0 400 60" style="enable-background:new 0 0 400 60;" xml:space="preserve">
<style type="text/css">
	.st0{fill:#ECECEC;}
</style>
<g>
	<path class="st0" d="M144.6,0.4C75.2-1.4,23,8.6,20.7,25.6c-1.2,8.7,30,23.6,48.9,26.9c-16.9,3.2-39.5,5.1-67.7,5L0,58.9
		c76.1,4,128.7-2.5,131.1-20.7c1.5-11.7-38.7-25.4-38.7-25.4l-1.8,0.4c0,0,15.2,7.1,15.2,16.4c0,9.9-11.2,17.5-33.5,22.2
		C57.6,46.5,48.9,40,49.1,33c0.2-16.2,34.4-29,94.5-30.6L144.6,0.4z"/>
	<path class="st0" d="M160.4,47.9c2.1,0,4.2-1.6,4.9-3.7l1.2-4h13.9l-6.1,18.2H131L150.2,0h43.5l-5.1,15.5h-13.9L175,15
		c0.8-2-0.5-3.7-2.5-3.7h-6.4H166c-2.1,0-4.2,1.7-4.9,3.7l-9.8,29.1c-0.7,1.9,0.5,3.7,2.5,3.7H160.4L160.4,47.9z"/>
	<polygon class="st0" points="195.1,0.2 210.6,0.2 213.9,19.2 228,0.2 244.2,0.2 216.9,36.9 210,58.6 194.7,58.6 201.4,36.9 	"/>
	<path class="st0" d="M323.7,47.5h-23.1c0,0-4.5-0.2-3.2-4.2l2.8-8.4H325l3.6-10.9h-24.9c0,0,1.5-4.2,3-9c1.5-4.5,5.9-4,5.9-4h20.2
		l3.8-10.9h-40.4L277,58.5h43.2L323.7,47.5z M353.4,40.4c-0.4,0-0.6,0.5-1.1,1.1l-11.5,16.9h-18.1L343,29l-2.1-29h15.9l1.1,15.7
		c0,0.2,0,0.7,0.2,0.7c0.1,0,0.3-0.2,0.5-0.5L370,0h18.2l-20.1,27.1l2.9,31.2h-15.8l-1.7-16.7C353.6,40.7,353.6,40.4,353.4,40.4
		 M256.9,47.4c2,0,5.2-1.4,6.1-3.6l1.1-3.1c1.2-3.9,2.8-6.7-3-6.7h-10.4l-4.5,13.5H256.9z M278.2,0.1c7.9,0,10.5,5.5,8.4,11.7
		l-3.3,9.6c-2.1,5.5-8.2,6.7-8.2,6.7c7.5,1.2,4.8,8.2,4.8,8.2c-0.8,2.7-1.2,4.4-2.2,7.2c-1.2,3.9-2.2,7-3.5,9.9
		c-1.1,2.7-4.9,4.9-10,4.9H227L246.2,0L278.2,0.1z M266,10.9h-7.6l-4.2,12.7h7.2c5.5,0.2,7.9-2.1,9.2-6l1.1-3.2
		c0.8-2-0.1-3.6-1.6-3.6L266,10.9L266,10.9z"/>
	<path class="st0" d="M395,4.4c0.8,0,1.2-0.1,1.6-0.9c0.2-0.7-0.3-0.7-0.9-0.7h-1.1L394,4.5L395,4.4L395,4.4z M393,7.5h-0.8L394,2
		h2.1c1.2,0,1.8,0.5,1.4,1.5c-0.2,1-1.1,1.4-1.9,1.5l0.8,2.4h-0.9L394.7,5h-0.9L393,7.5z M393.6,8.7c2.1,0,4.4-1.6,5.3-4
		c0.8-2.2-0.4-3.9-2.5-3.9c-2.2,0-4.5,1.7-5.3,3.9C390.2,7,391.5,8.7,393.6,8.7 M390.1,4.7C391,2,393.9,0,396.5,0s4.1,2,3.2,4.7
		c-0.9,2.7-3.8,4.7-6.4,4.7S389.1,7.5,390.1,4.7"/>
</g>
</svg>
