<?xml version="1.0" encoding="utf-8"?>
<!-- Generator: Adobe Illustrator 25.4.1, SVG Export Plug-In . SVG Version: 6.00 Build 0)  -->
<svg version="1.1" id="layer" xmlns="http://www.w3.org/2000/svg" xmlns:xlink="http://www.w3.org/1999/xlink" x="0px" y="0px"
	 viewBox="0 0 400 106" style="enable-background:new 0 0 400 106;" xml:space="preserve">
<style type="text/css">
	.st0{fill:#ECECEC;}
	.st1{fill-rule:evenodd;clip-rule:evenodd;fill:#ECECEC;}
</style>
<g>
	<path class="st0" d="M397.2,32.6l-16.9-16.6c-1.9-2.3-5.4-3.5-7.9-3.5c-5,0.1-8.1,3.1-9.5,6h-46.4L297.6,0H0v40l16.2,16.1h6.5v22
		l14.9,14.6h32.6v-5.2h61.8l18.9,18.6v0.1h165.9l10.4-18.6h68.1V48c2.6-1.8,4.2-4.5,4.6-7.7v-0.2v-0.2C400,37,399.1,34.7,397.2,32.6
		z M393.2,46.8v38.5H326l-10.4,18.6H151.8L133,85.3H68.2v5.2H38.6L24.9,77.1V54h-7.8L2,39.2V2h294.8l19,18.6h48.6c0,0,1.6-5.9,8.1-6
		c2.1,0,5,1.2,6.2,2.8l17,16.6c1.6,1.8,2.1,3.8,2.1,6C397.5,43,395.8,45.4,393.2,46.8z"/>
	<polygon class="st0" points="11.6,16.5 11.6,24.5 39.6,24.5 39.6,70.8 48,70.8 48,24.5 250.4,24.5 250.4,16.5 	"/>
	<polygon class="st0" points="54.8,35 54.8,65.6 86.6,65.6 86.6,57.4 63,57.4 63,53.8 77.6,53.8 77.6,46.5 63,46.5 63,43.1 86,43.1 
		86.1,35 	"/>
	<polygon class="st0" points="132.5,35 132.6,65.6 140.8,65.6 140.8,53.8 157.5,53.8 157.5,65.6 165.8,65.6 165.8,35 157.5,35 
		157.5,46.4 140.8,46.4 140.8,35 	"/>
	<polygon class="st0" points="171.8,35 171.8,65.6 180.1,65.6 180.1,43.9 197.6,65.6 208.9,65.6 208.9,35 200.6,35 200.6,56.6 
		183.2,35 	"/>
	<path class="st1" d="M224.2,35h16.9c5.1,0,9.4,4.1,9.4,9.2v12.3c0,5.1-4.2,9.2-9.4,9.2h-16.9c-5.1,0-9.4-4.1-9.4-9.2V44.2
		C214.9,39.1,219.1,35,224.2,35 M225.5,43.1h14.4c1.2,0,2.4,1,2.4,2.3v9.8c0,1.3-1.1,2.3-2.4,2.3h-14.4c-1.2,0-2.4-1-2.4-2.3v-9.8
		C223.2,44.1,224.2,43.1,225.5,43.1"/>
	<path class="st0" d="M118.2,54V55c0,1.3-1.1,2.3-2.3,2.3h-14.3c-1.2,0-2.3-1-2.3-2.3v-9.8c0-1.3,1.1-2.3,2.3-2.3H116
		c1.2,0,2.3,1,2.3,2.3v1.1h8.2v-2.3c0-5.1-4.2-9.2-9.3-9.2h-16.8c-5.2,0-9.3,4.1-9.3,9.2v12.3c0,5.1,4.2,9.2,9.3,9.2h17
		c5.2,0,9.3-4.1,9.3-9.2v-2.5L118.2,54z"/>
	<path class="st0" d="M293.5,24.2v8.2h-26.1c-1.4,0-2.5,1.3-2.5,2.9v19.3c0,1.6,1,2.9,2.5,2.9h19.5v-6.2h-8v-8.1h16.4v22.5h-28.4
		c-5.6,0-10.1-5.1-10.1-11.4V35.6c0-6.3,4.5-11.4,10.1-11.4L293.5,24.2L293.5,24.2z"/>
	<polygon class="st0" points="360.9,65.6 353.6,65.6 344.3,46.9 344.3,65.6 336.1,65.6 336,35 347.8,35 357.2,54 366.8,35 378.4,35 
		378.4,65.6 370.2,65.6 370.2,46.9 	"/>
	<polygon class="st0" points="304.8,84.2 157.5,84.2 157.5,76 299.4,76 309.8,57.3 297.4,35 306.8,35 314.5,48.9 322.2,35 331.6,35 
			"/>
	<path class="st0" d="M366,23c0-3.6,3-6.4,6.5-6.4s6.5,2.9,6.5,6.4c0,3.6-3,6.4-6.5,6.4S366,26.6,366,23 M366.9,23
		c0,3,2.5,5.5,5.6,5.5c3.1,0,5.6-2.5,5.6-5.5c0-3.1-2.5-5.5-5.6-5.6C369.4,17.5,367,20,366.9,23"/>
	<path class="st1" d="M373.1,24.2c0.6,0,0.9,0.4,0.9,1v1.2h1.2v-1.3c0-1-0.2-1.4-1.1-1.5l0,0c1.1-0.2,1.2-0.9,1.2-1.9
		c0-1.5-0.5-2-2-2h-3.4v6.6h1.2v-2.2L373.1,24.2L373.1,24.2L373.1,24.2z M371.2,23.1v-2.3h1.8c1,0,1,0.2,1,1.1c0,1-0.2,1.2-1.2,1.2
		L371.2,23.1L371.2,23.1L371.2,23.1z"/>
	<path class="st0" d="M373.1,24.2c0.6,0,0.9,0.4,0.9,1v1.2h1.2v-1.3c0-1-0.2-1.4-1.1-1.5l0,0c1.1-0.2,1.2-0.9,1.2-1.9
		c0-1.5-0.5-2-2-2h-3.4v6.6h1.2v-2.2L373.1,24.2L373.1,24.2L373.1,24.2z M371.2,23.1v-2.3h1.8c1,0,1,0.2,1,1.1c0,1-0.2,1.2-1.2,1.2
		L371.2,23.1L371.2,23.1L371.2,23.1z"/>
	<path class="st0" d="M241.1,35h-16.9c-5.1,0-9.4,4.1-9.4,9.2v12.3c0,5.1,4.2,9.2,9.4,9.2h16.9c5.1,0,9.4-4.1,9.4-9.2V44.2
		C250.4,39.1,246.3,35,241.1,35 M242.2,55.1c0,1.3-1.1,2.3-2.4,2.3h-14.4c-1.2,0-2.4-1-2.4-2.3v-9.8c0-1.3,1.1-2.3,2.4-2.3h14.4
		c1.2,0,2.4,1,2.4,2.3V55.1z"/>
</g>
</svg>
