<?xml version="1.0" encoding="utf-8"?>
<!-- Generator: Adobe Illustrator 25.4.1, SVG Export Plug-In . SVG Version: 6.00 Build 0)  -->
<svg version="1.1" id="layer" xmlns="http://www.w3.org/2000/svg" xmlns:xlink="http://www.w3.org/1999/xlink" x="0px" y="0px"
	 viewBox="0 0 400 63" style="enable-background:new 0 0 400 63;" xml:space="preserve">
<style type="text/css">
	.st0{fill:#ECECEC;}
</style>
<g>
	<path class="st0" d="M36.6,9.5c0.9-4.6,4.9-8.5,9.5-9.3c0.6-0.1,0.2-0.2,0-0.2H35.9c-5.3,0-10.4,4.3-11.4,9.5L14.2,62.9h2.5
		c5.3,0,10.4-4.2,11.4-9.5L36.6,9.5z"/>
	<path class="st0" d="M108.3,0h-32c-5.3,0-10.4,4.3-11.4,9.5L54.7,62.9h6.6c5.3,0,10.4-4.2,11.4-9.5l7.7-39.9l0,0
		c0.3-1.3,1.5-2.3,2.9-2.3h15.1c1.3,0,2.2,1.1,1.9,2.3l-2.5,13c-0.3,1.3-1.5,2.3-2.9,2.3H79.7l-0.3,1.6c-1,5.2,2.5,9.5,7.8,9.5h13.4
		c5.3,0,10.4-4.3,11.4-9.5l4.1-21.1C117.1,4.3,113.7,0,108.3,0"/>
	<path class="st0" d="M261.3,61.2c1-5.2-2.5-9.5-7.8-9.5h-14.1c-1.3,0-2.2-1.1-1.9-2.3l6.9-35.8l0,0c0.3-1.3,1.5-2.3,2.9-2.3h14.1
		c5.3,0,10.4-4.3,11.4-9.5l0.3-1.7h-32.7c-5.3,0-10.4,4.3-11.4,9.5l-8.4,43.9c-1,5.2,2.5,9.5,7.8,9.5h32.7L261.3,61.2z"/>
	<path class="st0" d="M283.9,49.4l6.9-35.8c0.3-1.3,1.5-2.3,2.9-2.3h15.1c1.3,0,2.2,1.1,1.9,2.3l-6.9,35.8c-0.3,1.3-1.5,2.3-2.9,2.3
		h-15.1C284.5,51.7,283.7,50.7,283.9,49.4 M319.8,0h-33c-5.3,0-10.4,4.3-11.4,9.5L267,53.4c-1,5.2,2.5,9.5,7.8,9.5h33
		c5.3,0,10.4-4.3,11.4-9.5l8.5-43.9C328.6,4.3,325.1,0,319.8,0"/>
	<path class="st0" d="M169.4,30.5l4.1-21.1c1-5.2-2.5-9.5-7.8-9.5h-32c-5.3,0-10.4,4.3-11.4,9.5L112,62.9h16.2l9.5-49.4
		c0.3-1.3,1.5-2.3,2.9-2.3h15.1c1.3,0,2.2,1.1,1.9,2.3l-2.5,13c-0.3,1.3-1.5,2.3-2.9,2.3h-15.1l-0.3,1.6c-0.2,1.1-0.4,3.3,0.5,5
		l15.4,27.3h17.3l-12.9-22.9h0.9C163.3,40.1,168.4,35.8,169.4,30.5"/>
	<path class="st0" d="M380.9,30.5l4.1-21.1c1-5.2-2.5-9.5-7.8-9.5h-32c-5.3,0-10.4,4.3-11.4,9.5l-10.3,53.4h16.2l9.5-49.4
		c0.3-1.3,1.5-2.3,2.9-2.3h15.1c1.3,0,2.2,1.1,1.9,2.3l-2.5,13c-0.3,1.3-1.5,2.3-2.9,2.3h-15l-0.3,1.6c-0.2,1.1-0.4,3.3,0.5,5
		l15.4,27.3h17.3l-12.9-22.7h0.9C374.7,40.1,379.9,35.8,380.9,30.5"/>
	<path class="st0" d="M58.9,9.5c0.9-4.6,4.9-8.4,9.5-9.3C69,0.1,68.6,0,68.4,0H54.1c-5.3,0-10.4,4.3-11.4,9.5L32.5,62.9H39
		c5.3,0,10.4-4.2,11.4-9.5L58.9,9.5z"/>
	<path class="st0" d="M10.3,9.5L0,62.8c4.7-0.7,9-4.6,9.9-9.3l8.5-43.9c0.9-4.6,4.9-8.5,9.5-9.3C28.5,0.1,28,0,27.9,0h-6.1
		C16.4,0,11.3,4.3,10.3,9.5"/>
	<path class="st0" d="M192.1,0c-5.3,0-10.4,4.3-11.4,9.5l-8.4,43.9c-1,5.2,2.5,9.5,7.8,9.5h34.3l0.3-1.7c1-5.2-2.5-9.5-7.8-9.5
		h-15.8c-1.3,0-2.2-1.1-1.9-2.3l2.4-12.5h22.1l2.1-11h-22.1l2.4-12.3l0,0c0.3-1.3,1.5-2.3,2.9-2.3h15.8c5.3,0,10.4-4.3,11.4-9.5
		l0.3-1.7h-34.5V0z"/>
	<path class="st0" d="M394.3,0.1c3.1,0,5.7,2.5,5.7,5.7s-2.5,5.7-5.7,5.7c-3.1,0-5.7-2.5-5.7-5.7C388.7,2.6,391.2,0.1,394.3,0.1
		 M394.3,10.1c2.4,0,4.3-1.9,4.3-4.3c0-2.4-1.9-4.3-4.3-4.3c-2.4,0-4.3,1.9-4.3,4.3C390.1,8.2,391.9,10.1,394.3,10.1 M393.5,8.3
		c0,0.4-0.1,0.7-0.7,0.7s-0.7-0.3-0.7-0.7V3.5c0-0.3,0.1-0.7,0.7-0.7h1.7c1.3,0,2.3,0.4,2.3,1.8c0,1.1-0.5,1.7-1.5,1.7l1.1,1.8
		c0.1,0.1,0.1,0.3,0.1,0.3c0,0.3-0.2,0.5-0.7,0.5c-0.5,0-0.7-0.4-0.9-0.7l-1-1.8h-0.5L393.5,8.3L393.5,8.3z M394.6,5.3
		c0.5,0,0.8-0.1,0.8-0.7S395.1,4,394.6,4h-1.1v1.4L394.6,5.3L394.6,5.3z"/>
</g>
</svg>
